<svg width="36" height="36" viewBox="0 0 36 36" fill="none" xmlns="http://www.w3.org/2000/svg">
<rect width="36" height="36" rx="18" fill="white"/>
<path fill-rule="evenodd" clip-rule="evenodd" d="M17.5374 13.196L17.4697 13.2637C15.7007 11.4947 12.8326 11.4947 11.0637 13.2637C9.2947 15.0327 9.29469 17.9008 11.0637 19.6697L14.797 23.403C16.566 25.172 19.434 25.172 21.203 23.403L24.9364 19.6697C26.7053 17.9007 26.7053 15.0327 24.9364 13.2637C23.1674 11.4947 20.2993 11.4947 18.5303 13.2637L18.0677 13.7264L17.5374 13.196ZM22.2637 24.4637L25.997 20.7304C28.3518 18.3756 28.3518 14.5578 25.997 12.203C23.8118 10.0178 20.3667 9.86047 18 11.731C15.6333 9.86049 12.1882 10.0178 10.003 12.203C7.64825 14.5578 7.64825 18.3756 10.003 20.7304L13.7363 24.4637L13.7364 24.4637C16.0911 26.8185 19.9089 26.8185 22.2637 24.4637L22.2637 24.4637Z" fill="#2D3132"/>
</svg>
